<svg xmlns="http://www.w3.org/2000/svg" version="1.1" xmlns:xlink="http://www.w3.org/1999/xlink" xmlns:svgjs="http://svgjs.com/svgjs" width="1920" height="1080" preserveAspectRatio="none" viewBox="0 0 1920 1080">
    <g mask="url(&quot;#SvgjsMask1731&quot;)" fill="none">
        <rect width="1920" height="1080" x="0" y="0" fill="rgba(255, 255, 255, 1)"></rect>
        <path d="M731.034,935.744C788.296,940.575,850.634,927.462,881.547,879.02C914.366,827.59,909.389,759.498,876.149,708.339C845.51,661.183,787.156,643.808,731.034,647.367C681.165,650.529,638.223,680.867,614.642,724.922C592.386,766.502,596.106,815.574,618.9,856.862C642.574,899.742,682.226,931.626,731.034,935.744" fill="rgba(28, 71, 142, 0.77)" class="triangle-float1"></path>
        <path d="M1497.9142902513458 75.94388984070912L1316.803328950909 10.024890828012019 1431.9952912386489 257.05485114114595z" fill="rgba(28, 71, 142, 0.77)" class="triangle-float2"></path>
        <path d="M1572.681316763417 254.50822561906972L1396.2121167888536 364.77842023913274 1506.4823114089165 541.2476202136963 1682.95151138348 430.97742559363326z" fill="rgba(28, 71, 142, 0.77)" class="triangle-float3"></path>
        <path d="M1820.691,980.063C1895.323,986.514,1977.939,966.673,2015.158,901.663C2052.22,836.927,2024.873,757.481,1983.752,695.244C1947.268,640.026,1886.872,607.772,1820.691,607.337C1753.683,606.897,1685.831,634.178,1653.876,693.077C1623.071,749.857,1644.409,816.573,1676.872,872.422C1709.124,927.908,1756.75,974.536,1820.691,980.063" fill="rgba(28, 71, 142, 0.77)" class="triangle-float1"></path>
        <path d="M847.852,637.882C875.435,637.297,891.713,610.286,905.298,586.273C918.589,562.779,931.736,535.826,919.078,511.985C905.862,487.092,876.029,477.436,847.852,478.07C820.864,478.677,795.129,491.499,781.969,515.069C769.108,538.104,773.557,565.553,786.028,588.801C799.36,613.653,819.656,638.48,847.852,637.882" fill="rgba(28, 71, 142, 0.77)" class="triangle-float2"></path>
        <path d="M1200.1068171387408 780.8594935548088L1276.8633931185109 513.1775018231865 932.4248254071185 704.1029175750388z" fill="rgba(28, 71, 142, 0.77)" class="triangle-float1"></path>
        <path d="M1739.8007131665013 539.8991163401477L1996.0912873813174 494.70817320481035 1950.9003442459802 238.4175989899942 1694.609770031164 283.6085421253315z" fill="rgba(28, 71, 142, 0.77)" class="triangle-float1"></path>
        <path d="M72.14132358491821 292.0967552112381L83.89434802524114 426.43443927976136 279.52436190786455 341.6360605850153z" fill="rgba(28, 71, 142, 0.77)" class="triangle-float2"></path>
        <path d="M1750.953549083536 507.72034297148815L1598.6151450796501 360.3280260322267 1550.6571310050717 539.3097711886562z" fill="rgba(28, 71, 142, 0.77)" class="triangle-float3"></path>
        <path d="M135.3056719346433 979.3151303441374L399.1817616192193 1097.1017928123285 377.1656826014604 845.4568581376186z" fill="rgba(28, 71, 142, 0.77)" class="triangle-float1"></path>
        <path d="M1844.7609878079581 405.3951530706465L1675.1932999583253 441.4378777703 1814.041230932622 677.7680471949226z" fill="rgba(28, 71, 142, 0.77)" class="triangle-float1"></path>
        <path d="M1338.5287003642854 200.2905656716397L1360.2970931139782 449.10443334768 1587.3425680403257 178.5221729219468z" fill="rgba(28, 71, 142, 0.77)" class="triangle-float1"></path>
    </g>
    <defs>
        <mask id="SvgjsMask1731">
            <rect width="1920" height="1080" fill="#ffffff"></rect>
        </mask>
        <style>
            @keyframes float1 {
                0%{transform: translate(0, 0)}
                50%{transform: translate(-10px, 0)}
                100%{transform: translate(0, 0)}
            }

            .triangle-float1 {
                animation: float1 5s infinite;
            }

            @keyframes float2 {
                0%{transform: translate(0, 0)}
                50%{transform: translate(-5px, -5px)}
                100%{transform: translate(0, 0)}
            }

            .triangle-float2 {
                animation: float2 4s infinite;
            }

            @keyframes float3 {
                0%{transform: translate(0, 0)}
                50%{transform: translate(0, -10px)}
                100%{transform: translate(0, 0)}
            }

            .triangle-float3 {
                animation: float3 6s infinite;
            }
        </style>
    </defs>
</svg>